<svg xmlns="http://www.w3.org/2000/svg" viewBox="0 0 960 440" width="960" height="440" font-family="'Courier New', Courier, monospace">
  <defs>
    <pattern id="dots" x="0" y="0" width="30" height="30" patternUnits="userSpaceOnUse"><circle cx="1.5" cy="1.5" r="1" fill="#1e3a5f" opacity="0.4"/></pattern>
    <marker id="arr-blue" markerWidth="8" markerHeight="8" refX="7" refY="3" orient="auto" markerUnits="strokeWidth"><path d="M0,0 L0,6 L8,3 z" fill="#79c0ff"/></marker>
    <marker id="arr-purple" markerWidth="8" markerHeight="8" refX="7" refY="3" orient="auto" markerUnits="strokeWidth"><path d="M0,0 L0,6 L8,3 z" fill="#c792ea"/></marker>
    <marker id="arr-teal" markerWidth="8" markerHeight="8" refX="7" refY="3" orient="auto" markerUnits="strokeWidth"><path d="M0,0 L0,6 L8,3 z" fill="#64ffda"/></marker>
    <filter id="glow-math" x="-30%" y="-30%" width="160%" height="160%"><feGaussianBlur stdDeviation="3" result="blur"/><feMerge><feMergeNode in="blur"/><feMergeNode in="SourceGraphic"/></feMerge></filter>
  </defs>
  <rect width="960" height="440" fill="#0d1117"/>
  <rect width="960" height="440" fill="url(#dots)"/>
  <text x="480" y="34" text-anchor="middle" font-size="13" font-weight="bold" fill="#79c0ff" letter-spacing="3">AI-GENERATED ALGORITHMS · CHAIN OF THOUGHT</text>
  <line x1="170" y1="44" x2="790" y2="44" stroke="#79c0ff" stroke-width="0.5" opacity="0.4"/>

  <!-- Zone labels -->
  <text x="120" y="66" text-anchor="middle" font-size="8" fill="#79c0ff" letter-spacing="2" font-weight="bold">PROBLEM</text>
  <text x="360" y="66" text-anchor="middle" font-size="8" fill="#c792ea" letter-spacing="2" font-weight="bold">MATHEMATICAL DERIVATION</text>
  <text x="600" y="66" text-anchor="middle" font-size="8" fill="#ff9b2e" letter-spacing="2" font-weight="bold">OPTIMIZATION</text>
  <text x="840" y="66" text-anchor="middle" font-size="8" fill="#64ffda" letter-spacing="2" font-weight="bold">SOLUTION</text>

  <!-- Step 1: Problem Input -->
  <rect x="60" y="80" width="120" height="105" rx="8" fill="#0a1628" stroke="#79c0ff" stroke-width="2"/>
  <rect x="60" y="80" width="120" height="24" rx="8" fill="#79c0ff" opacity="0.15"/>
  <text x="120" y="97" text-anchor="middle" font-size="9" fill="#79c0ff" letter-spacing="1" font-weight="bold">INPUT</text>
  <text x="120" y="140" text-anchor="middle" font-size="20" fill="#ccd6f6">Σ</text> <!-- Summation symbol -->
  <text x="120" y="165" text-anchor="middle" font-size="9" fill="#8892b0">Natural Language</text>
  <text x="120" y="178" text-anchor="middle" font-size="9" fill="#8892b0">Problem Spec</text>

  <!-- Arrow 1 -->
  <line x1="180" y1="132" x2="240" y2="132" stroke="#79c0ff" stroke-width="1.5" marker-end="url(#arr-blue)"/>
  <text x="210" y="125" text-anchor="middle" font-size="8" fill="#79c0ff">parse</text>

  <!-- Step 2: CoT / Derivation -->
  <rect x="240" y="74" width="240" height="117" rx="8" fill="#160d2a" stroke="#c792ea" stroke-width="2.5" filter="url(#glow-math)"/>
  <rect x="240" y="74" width="240" height="26" rx="8" fill="#c792ea" opacity="0.2"/>
  <text x="360" y="93" text-anchor="middle" font-size="9" fill="#c792ea" letter-spacing="1" font-weight="bold">CHAIN OF THOUGHT</text>
  <!-- Math logic visualization -->
  <path d="M280,120 L300,120 L300,140" fill="none" stroke="#c792ea" stroke-width="1.5"/>
  <path d="M310,120 L330,120 L330,140" fill="none" stroke="#c792ea" stroke-width="1.5"/>
  <path d="M340,120 L420,120" fill="none" stroke="#c792ea" stroke-width="1.5" stroke-dasharray="4,4"/>
  <text x="360" y="145" text-anchor="middle" font-size="9" fill="#ccd6f6">Proof Generation</text>
  <text x="360" y="160" text-anchor="middle" font-size="9" fill="#8892b0">Brute Force O(n²)</text>
  <text x="360" y="175" text-anchor="middle" font-size="9" fill="#c792ea" font-weight="bold">↓ Derived Formula O(1)</text>

  <!-- Arrow 2 -->
  <line x1="480" y1="132" x2="540" y2="132" stroke="#c792ea" stroke-width="1.5" marker-end="url(#arr-purple)"/>
  <text x="510" y="125" text-anchor="middle" font-size="8" fill="#c792ea">constrain</text>

  <!-- Step 3: Optimization Filter -->
  <rect x="540" y="80" width="120" height="105" rx="8" fill="#1a0f00" stroke="#ff9b2e" stroke-width="2"/>
  <rect x="540" y="80" width="120" height="24" rx="8" fill="#ff9b2e" opacity="0.2"/>
  <text x="600" y="97" text-anchor="middle" font-size="9" fill="#ff9b2e" letter-spacing="1" font-weight="bold">COMPLEXITY</text>
  <circle cx="600" cy="130" r="15" fill="none" stroke="#ff9b2e" stroke-width="1.5"/>
  <line x1="585" y1="145" x2="615" y2="115" stroke="#ff9b2e" stroke-width="1.5"/> <!-- No symbol -->
  <text x="600" y="160" text-anchor="middle" font-size="9" fill="#ccd6f6">Big-O Check</text>
  <text x="600" y="175" text-anchor="middle" font-size="9" fill="#8892b0">Reject O(n)</text>
  <text x="600" y="186" text-anchor="middle" font-size="9" fill="#8892b0">Accept O(1)</text>

  <!-- Arrow 3 -->
  <line x1="660" y1="132" x2="720" y2="132" stroke="#64ffda" stroke-width="1.5" marker-end="url(#arr-teal)"/>
  <text x="690" y="125" text-anchor="middle" font-size="8" fill="#64ffda">generate</text>

  <!-- Step 4: Polyglot Output -->
  <rect x="720" y="80" width="180" height="105" rx="8" fill="#071a1f" stroke="#64ffda" stroke-width="2"/>
  <rect x="720" y="80" width="180" height="24" rx="8" fill="#64ffda" opacity="0.15"/>
  <text x="810" y="97" text-anchor="middle" font-size="9" fill="#64ffda" letter-spacing="1" font-weight="bold">POLYGLOT CODE</text>
  
  <!-- Code Cards -->
  <rect x="735" y="115" width="40" height="50" rx="2" fill="#0d1117" stroke="#64ffda" stroke-width="0.5"/>
  <text x="755" y="140" text-anchor="middle" font-size="10" fill="#64ffda">C++</text>
  
  <rect x="790" y="115" width="40" height="50" rx="2" fill="#0d1117" stroke="#64ffda" stroke-width="0.5"/>
  <text x="810" y="140" text-anchor="middle" font-size="10" fill="#64ffda">Py</text>

  <rect x="845" y="115" width="40" height="50" rx="2" fill="#0d1117" stroke="#64ffda" stroke-width="0.5"/>
  <text x="865" y="140" text-anchor="middle" font-size="10" fill="#64ffda">Java</text>
  
  <text x="810" y="178" text-anchor="middle" font-size="9" fill="#8892b0">Idiomatic Impl.</text>

  <!-- Legend -->
  <rect x="40" y="280" width="880" height="130" rx="10" fill="#0a0f1a" stroke="#ffffff" stroke-width="0.5" opacity="0.3"/>
  <text x="480" y="300" text-anchor="middle" font-size="9" fill="#8892b0" letter-spacing="2">GENERATION PIPELINE</text>
  
  <g transform="translate(60, 320)">
    <circle cx="10" cy="10" r="10" fill="#79c0ff" opacity="0.2" stroke="#79c0ff"/>
    <text x="10" y="14" text-anchor="middle" font-size="9" fill="#79c0ff" font-weight="bold">1</text>
    <text x="30" y="14" font-size="9" fill="#ccd6f6">Problem Parsing</text>
    <text x="30" y="26" font-size="8" fill="#8892b0">Extract constraints and mathematical goal</text>
  </g>

  <g transform="translate(60, 360)">
    <circle cx="10" cy="10" r="10" fill="#c792ea" opacity="0.2" stroke="#c792ea"/>
    <text x="10" y="14" text-anchor="middle" font-size="9" fill="#c792ea" font-weight="bold">2</text>
    <text x="30" y="14" font-size="9" fill="#ccd6f6">Mathematical Derivation</text>
    <text x="30" y="26" font-size="8" fill="#8892b0">Agent generates proof before code</text>
  </g>

  <g transform="translate(460, 320)">
    <circle cx="10" cy="10" r="10" fill="#ff9b2e" opacity="0.2" stroke="#ff9b2e"/>
    <text x="10" y="14" text-anchor="middle" font-size="9" fill="#ff9b2e" font-weight="bold">3</text>
    <text x="30" y="14" font-size="9" fill="#ccd6f6">Complexity Filtering</text>
    <text x="30" y="26" font-size="8" fill="#8892b0">Ensure solution meets Big-O requirements</text>
  </g>

  <g transform="translate(460, 360)">
    <circle cx="10" cy="10" r="10" fill="#64ffda" opacity="0.2" stroke="#64ffda"/>
    <text x="10" y="14" text-anchor="middle" font-size="9" fill="#64ffda" font-weight="bold">4</text>
    <text x="30" y="14" font-size="9" fill="#ccd6f6">Code Synthesis</text>
    <text x="30" y="26" font-size="8" fill="#8892b0">Translate logic to multiple languages</text>
  </g>

</svg>
