<svg xmlns="http://www.w3.org/2000/svg" viewBox="0 0 960 440" width="960" height="440" font-family="sans-serif">
  <rect width="960" height="440" fill="#f0f0f0"/>
  <text x="480" y="34" text-anchor="middle" font-size="13" fill="#333333">AI-GENERATED ALGORITHMS · CHAIN OF THOUGHT</text>
  <line x1="170" y1="44" x2="790" y2="44" stroke="#666666" stroke-width="0.5"/>

  <!-- Zone labels -->
  <text x="120" y="66" text-anchor="middle" font-size="8" fill="#666666">PROBLEM</text>
  <text x="360" y="66" text-anchor="middle" font-size="8" fill="#888888">MATHEMATICAL DERIVATION</text>
  <text x="600" y="66" text-anchor="middle" font-size="8" fill="#aaaaaa">OPTIMIZATION</text>
  <text x="840" y="66" text-anchor="middle" font-size="8" fill="#cccccc">SOLUTION</text>

  <!-- Step 1: Problem Input -->
  <rect x="60" y="80" width="120" height="105" rx="8" fill="#e0e0e0" stroke="#666666" stroke-width="2"/>
  <rect x="60" y="80" width="120" height="24" rx="8" fill="#666666"/>
  <text x="120" y="97" text-anchor="middle" font-size="9" fill="#666666">INPUT</text>
  <text x="120" y="140" text-anchor="middle" font-size="20" fill="#ccd6f6">Σ</text> <!-- Summation symbol -->
  <text x="120" y="165" text-anchor="middle" font-size="9" fill="#8892b0">Natural Language</text>
  <text x="120" y="178" text-anchor="middle" font-size="9" fill="#8892b0">Problem Spec</text>

  <!-- Arrow 1 -->
  <line x1="180" y1="132" x2="240" y2="132" stroke="#666666" stroke-width="1.5"/>
  <text x="210" y="125" text-anchor="middle" font-size="8" fill="#666666">parse</text>

  <!-- Step 2: CoT / Derivation -->
  <rect x="240" y="74" width="240" height="117" rx="8" fill="#d0d0d0" stroke="#888888" stroke-width="2.5"/>
  <rect x="240" y="74" width="240" height="26" rx="8" fill="#888888"/>
  <text x="360" y="93" text-anchor="middle" font-size="9" fill="#888888">CHAIN OF THOUGHT</text>
  <!-- Math logic visualization -->
  <path d="M280,120 L300,120 L300,140" fill="none" stroke="#888888" stroke-width="1.5"/>
  <path d="M310,120 L330,120 L330,140" fill="none" stroke="#888888" stroke-width="1.5"/>
  <path d="M340,120 L420,120" fill="none" stroke="#888888" stroke-width="1.5" stroke-dasharray="4,4"/>
  <text x="360" y="145" text-anchor="middle" font-size="9" fill="#ccd6f6">Proof Generation</text>
  <text x="360" y="160" text-anchor="middle" font-size="9" fill="#8892b0">Brute Force O(n²)</text>
  <text x="360" y="175" text-anchor="middle" font-size="9" fill="#888888">↓ Derived Formula O(1)</text>

  <!-- Arrow 2 -->
  <line x1="480" y1="132" x2="540" y2="132" stroke="#888888" stroke-width="1.5"/>
  <text x="510" y="125" text-anchor="middle" font-size="8" fill="#888888">constrain</text>

  <!-- Step 3: Optimization Filter -->
  <rect x="540" y="80" width="120" height="105" rx="8" fill="#c0c0c0" stroke="#aaaaaa" stroke-width="2"/>
  <rect x="540" y="80" width="120" height="24" rx="8" fill="#aaaaaa"/>
  <text x="600" y="97" text-anchor="middle" font-size="9" fill="#aaaaaa">COMPLEXITY</text>
  <circle cx="600" cy="130" r="15" fill="none" stroke="#aaaaaa" stroke-width="1.5"/>
  <line x1="585" y1="145" x2="615" y2="115" stroke="#aaaaaa" stroke-width="1.5"/> <!-- No symbol -->
  <text x="600" y="160" text-anchor="middle" font-size="9" fill="#ccd6f6">Big-O Check</text>
  <text x="600" y="175" text-anchor="middle" font-size="9" fill="#8892b0">Reject O(n)</text>
  <text x="600" y="186" text-anchor="middle" font-size="9" fill="#8892b0">Accept O(1)</text>

  <!-- Arrow 3 -->
  <line x1="660" y1="132" x2="720" y2="132" stroke="#cccccc" stroke-width="1.5"/>
  <text x="690" y="125" text-anchor="middle" font-size="8" fill="#cccccc">generate</text>

  <!-- Step 4: Polyglot Output -->
  <rect x="720" y="80" width="180" height="105" rx="8" fill="#b0b0b0" stroke="#cccccc" stroke-width="2"/>
  <rect x="720" y="80" width="180" height="24" rx="8" fill="#cccccc"/>
  <text x="810" y="97" text-anchor="middle" font-size="9" fill="#cccccc">POLYGLOT CODE</text>
  
  <!-- Code Cards -->
  <rect x="735" y="115" width="40" height="50" rx="2" fill="#f0f0f0" stroke="#cccccc" stroke-width="0.5"/>
  <text x="755" y="140" text-anchor="middle" font-size="10" fill="#cccccc">C++</text>
  
  <rect x="790" y="115" width="40" height="50" rx="2" fill="#f0f0f0" stroke="#cccccc" stroke-width="0.5"/>
  <text x="810" y="140" text-anchor="middle" font-size="10" fill="#cccccc">Py</text>

  <rect x="845" y="115" width="40" height="50" rx="2" fill="#f0f0f0" stroke="#cccccc" stroke-width="0.5"/>
  <text x="865" y="140" text-anchor="middle" font-size="10" fill="#cccccc">Java</text>
  
  <text x="810" y="178" text-anchor="middle" font-size="9" fill="#8892b0">Idiomatic Impl.</text>

  <!-- Legend -->
  <rect x="40" y="280" width="880" height="130" rx="10" fill="#a0a0a0" stroke="#ffffff" stroke-width="0.5"/>
  <text x="480" y="300" text-anchor="middle" font-size="9" fill="#8892b0">GENERATION PIPELINE</text>
  
  <g transform="translate(60, 320)">
    <circle cx="10" cy="10" r="10" fill="#666666" stroke="#666666"/>
    <text x="10" y="14" text-anchor="middle" font-size="9" fill="#666666">1</text>
    <text x="30" y="14" font-size="9" fill="#ccd6f6">Problem Parsing</text>
    <text x="30" y="26" font-size="8" fill="#8892b0">Extract constraints and mathematical goal</text>
  </g>

  <g transform="translate(60, 360)">
    <circle cx="10" cy="10" r="10" fill="#888888" stroke="#888888"/>
    <text x="10" y="14" text-anchor="middle" font-size="9" fill="#888888">2</text>
    <text x="30" y="14" font-size="9" fill="#ccd6f6">Mathematical Derivation</text>
    <text x="30" y="26" font-size="8" fill="#8892b0">Agent generates proof before code</text>
  </g>

  <g transform="translate(460, 320)">
    <circle cx="10" cy="10" r="10" fill="#aaaaaa" stroke="#aaaaaa"/>
    <text x="10" y="14" text-anchor="middle" font-size="9" fill="#aaaaaa">3</text>
    <text x="30" y="14" font-size="9" fill="#ccd6f6">Complexity Filtering</text>
    <text x="30" y="26" font-size="8" fill="#8892b0">Ensure solution meets Big-O requirements</text>
  </g>

  <g transform="translate(460, 360)">
    <circle cx="10" cy="10" r="10" fill="#cccccc" stroke="#cccccc"/>
    <text x="10" y="14" text-anchor="middle" font-size="9" fill="#cccccc">4</text>
    <text x="30" y="14" font-size="9" fill="#ccd6f6">Code Synthesis</text>
    <text x="30" y="26" font-size="8" fill="#8892b0">Translate logic to multiple languages</text>
  </g>

</svg>
