<svg xmlns="http://www.w3.org/2000/svg" viewBox="0 0 960 440" width="960" height="440" font-family="'Courier New', Courier, monospace">
  <defs>
    <pattern id="dots" x="0" y="0" width="30" height="30" patternUnits="userSpaceOnUse"><circle cx="1.5" cy="1.5" r="1" fill="#1e3a5f"/></pattern>
    <marker id="arr-teal" markerWidth="8" markerHeight="8" refX="7" refY="3" orient="auto" markerUnits="strokeWidth"><path d="M0,0 L0,6 L8,3 z" fill="#cccccc"/></marker>
    <marker id="arr-purple" markerWidth="8" markerHeight="8" refX="7" refY="3" orient="auto" markerUnits="strokeWidth"><path d="M0,0 L0,6 L8,3 z" fill="#888888"/></marker>
    <marker id="arr-orange" markerWidth="8" markerHeight="8" refX="7" refY="3" orient="auto" markerUnits="strokeWidth"><path d="M0,0 L0,6 L8,3 z" fill="#aaaaaa"/></marker>
    <marker id="arr-blue" markerWidth="8" markerHeight="8" refX="7" refY="3" orient="auto" markerUnits="strokeWidth"><path d="M0,0 L0,6 L8,3 z" fill="#666666"/></marker>
    <filter id="glow-ai" x="-40%" y="-40%" width="180%" height="180%"><feGaussianBlur stdDeviation="5" result="blur"/><feMerge><feMergeNode in="blur"/><feMergeNode in="SourceGraphic"/></feMerge></filter>
    <filter id="glow-teal" x="-30%" y="-30%" width="160%" height="160%"><feGaussianBlur stdDeviation="3" result="blur"/><feMerge><feMergeNode in="blur"/><feMergeNode in="SourceGraphic"/></feMerge></filter>
  </defs>
  <rect width="960" height="440" fill="#f0f0f0"/>
  <text x="480" y="34" text-anchor="middle" font-size="13" fill="#cccccc">AI-NATIVE DEVELOPMENT · AGENTIC WORKFLOW</text>
  <line x1="170" y1="44" x2="790" y2="44" stroke="#cccccc" stroke-width="0.5"/>
  
  <!-- Zone labels -->
  <text x="100" y="66" text-anchor="middle" font-size="8" fill="#aaaaaa">DIRECTIVE</text>
  <text x="300" y="66" text-anchor="middle" font-size="8" fill="#888888">ORCHESTRATION</text>
  <text x="500" y="66" text-anchor="middle" font-size="8" fill="#666666">EXECUTION</text>
  <text x="700" y="66" text-anchor="middle" font-size="8" fill="#cccccc">DEPLOYMENT</text>

  <!-- Step 1: User Directive -->
  <rect x="40" y="80" width="120" height="105" rx="8" fill="#c0c0c0" stroke="#aaaaaa" stroke-width="2"/>
  <rect x="40" y="80" width="120" height="24" rx="8" fill="#aaaaaa"/>
  <text x="100" y="97" text-anchor="middle" font-size="9" fill="#aaaaaa">ARCHITECT</text>
  <path d="M70,120 L90,120 L80,135 Z" fill="none" stroke="#aaaaaa" stroke-width="1.5"/> 
  <circle cx="100" cy="125" r="10" fill="none" stroke="#aaaaaa" stroke-width="1.5"/>
  <text x="100" y="155" text-anchor="middle" font-size="9" fill="#ccd6f6">Human Intent</text>
  <text x="100" y="170" text-anchor="middle" font-size="9" fill="#8892b0">Natural Language</text>
  <text x="100" y="181" text-anchor="middle" font-size="9" fill="#8892b0">High-level Goal</text>

  <!-- Arrow 1 -->
  <line x1="160" y1="132" x2="225" y2="132" stroke="#aaaaaa" stroke-width="1.5"/>
  <text x="192" y="125" text-anchor="middle" font-size="8" fill="#aaaaaa">prompts</text>

  <!-- Step 2: Agent Core -->
  <rect x="225" y="74" width="150" height="117" rx="8" fill="#d0d0d0" stroke="#888888" stroke-width="2.5" filter="url(#glow-ai)"/>
  <rect x="225" y="74" width="150" height="26" rx="8" fill="#888888"/>
  <text x="300" y="93" text-anchor="middle" font-size="9" fill="#888888">INTELLIGENT AGENT</text>
  <circle cx="300" cy="125" r="15" fill="none" stroke="#888888" stroke-width="1.5"/>
  <path d="M290,125 L310,125 M300,115 L300,135" fill="none" stroke="#888888" stroke-width="1"/>
  <text x="300" y="155" text-anchor="middle" font-size="9" fill="#ccd6f6">Sequential Thinking</text>
  <text x="300" y="170" text-anchor="middle" font-size="9" fill="#8892b0">Plan Decomposition</text>
  <text x="300" y="181" text-anchor="middle" font-size="9" fill="#8892b0">Self-Correction</text>

  <!-- Arrow 2 -->
  <line x1="375" y1="132" x2="440" y2="132" stroke="#888888" stroke-width="1.5"/>
  <text x="407" y="125" text-anchor="middle" font-size="8" fill="#888888">tools</text>

  <!-- Step 3: Execution/MCP -->
  <rect x="440" y="80" width="120" height="105" rx="8" fill="#e0e0e0" stroke="#666666" stroke-width="2"/>
  <rect x="440" y="80" width="120" height="24" rx="8" fill="#666666"/>
  <text x="500" y="97" text-anchor="middle" font-size="9" fill="#666666">MCP TOOLS</text>
  <rect x="480" y="115" width="40" height="30" fill="none" stroke="#666666" stroke-width="1.5"/>
  <line x1="485" y1="120" x2="515" y2="120" stroke="#666666" stroke-width="1"/>
  <line x1="485" y1="128" x2="505" y2="128" stroke="#666666" stroke-width="1"/>
  <text x="500" y="158" text-anchor="middle" font-size="9" fill="#ccd6f6">Filesystem / Bash</text>
  <text x="500" y="173" text-anchor="middle" font-size="9" fill="#8892b0">Code Generation</text>
  <text x="500" y="184" text-anchor="middle" font-size="9" fill="#8892b0">Build Verification</text>

  <!-- Arrow 3 -->
  <line x1="560" y1="132" x2="625" y2="132" stroke="#666666" stroke-width="1.5"/>
  <text x="592" y="125" text-anchor="middle" font-size="8" fill="#666666">commits</text>

  <!-- Step 4: Product -->
  <rect x="625" y="80" width="150" height="105" rx="8" fill="#b0b0b0" stroke="#cccccc" stroke-width="2" filter="url(#glow-teal)"/>
  <rect x="625" y="80" width="150" height="24" rx="8" fill="#cccccc"/>
  <text x="700" y="97" text-anchor="middle" font-size="9" fill="#cccccc">LIVE ARTIFACT</text>
  <path d="M680,120 L720,120 L700,150 Z" fill="none" stroke="#cccccc" stroke-width="1.5"/>
  <text x="700" y="160" text-anchor="middle" font-size="9" fill="#ccd6f6">Astro / Tailwind</text>
  <text x="700" y="175" text-anchor="middle" font-size="9" fill="#8892b0">Static Build</text>
  <text x="700" y="186" text-anchor="middle" font-size="9" fill="#8892b0">GitHub Pages</text>

  <!-- Feedback Loop -->
  <path d="M500,185 L500,230 L300,230 L300,191" fill="none" stroke="#888888" stroke-width="1.5" stroke-dasharray="4,4"/>
  <rect x="360" y="220" width="80" height="20" rx="4" fill="#d0d0d0" stroke="#888888"/>
  <text x="400" y="233" text-anchor="middle" font-size="8" fill="#888888">Self-Healing</text>

  <!-- Legend -->
  <rect x="40" y="280" width="880" height="130" rx="10" fill="#a0a0a0" stroke="#ffffff" stroke-width="0.5"/>
  <text x="480" y="300" text-anchor="middle" font-size="9" fill="#8892b0">PROCESS BREAKDOWN</text>
  
  <g transform="translate(60, 320)">
    <circle cx="10" cy="10" r="10" fill="#aaaaaa" stroke="#aaaaaa"/>
    <text x="10" y="14" text-anchor="middle" font-size="9" fill="#aaaaaa">1</text>
    <text x="30" y="14" font-size="9" fill="#ccd6f6">Architectural Directive</text>
    <text x="30" y="26" font-size="8" fill="#8892b0">Senior Engineer defines high-level goal</text>
  </g>

  <g transform="translate(60, 360)">
    <circle cx="10" cy="10" r="10" fill="#888888" stroke="#888888"/>
    <text x="10" y="14" text-anchor="middle" font-size="9" fill="#888888">2</text>
    <text x="30" y="14" font-size="9" fill="#ccd6f6">Agentic Reasoning</text>
    <text x="30" y="26" font-size="8" fill="#8892b0">AI decomposes goal into atomic steps</text>
  </g>

  <g transform="translate(460, 320)">
    <circle cx="10" cy="10" r="10" fill="#666666" stroke="#666666"/>
    <text x="10" y="14" text-anchor="middle" font-size="9" fill="#666666">3</text>
    <text x="30" y="14" font-size="9" fill="#ccd6f6">MCP Tool Execution</text>
    <text x="30" y="26" font-size="8" fill="#8892b0">Filesystem access &amp; build command execution</text>
  </g>

  <g transform="translate(460, 360)">
    <circle cx="10" cy="10" r="10" fill="#cccccc" stroke="#cccccc"/>
    <text x="10" y="14" text-anchor="middle" font-size="9" fill="#cccccc">4</text>
    <text x="30" y="14" font-size="9" fill="#ccd6f6">Production Artifact</text>
    <text x="30" y="26" font-size="8" fill="#8892b0">Optimized, type-safe code generated &amp; deployed</text>
  </g>
</svg>
